<mxfile host="app.diagrams.net" agent="Mozilla/5.0 (Windows NT 10.0; Win64; x64; rv:129.0) Gecko/20100101 Firefox/129.0" version="24.7.7">
  <diagram name="Page-1" id="UtYKNot4Wh5vPM72-p5T">
    <mxGraphModel dx="784" dy="293" grid="1" gridSize="10" guides="1" tooltips="1" connect="1" arrows="1" fold="1" page="1" pageScale="1" pageWidth="827" pageHeight="1169" math="0" shadow="0">
      <root>
        <mxCell id="0" />
        <mxCell id="1" parent="0" />
        <mxCell id="PNV59kuLUWf2rCx9kwnf-1" value="" style="rounded=0;whiteSpace=wrap;html=1;fillColor=none;points=[[0,0,0,0,0],[0,0.25,0,0,0],[0,0.5,0,0,0],[0,0.75,0,0,0],[0,1,0,0,0],[0.14,1,0,-1,0],[0.2,0,0,-20,0],[0.36,1,0,-1,0],[0.4,0,0,-14,0],[0.56,1,0,4,0],[0.6,0,0,-9,0],[0.79,1,0,-2,0],[0.8,0,0,-5,0]];" vertex="1" parent="1">
          <mxGeometry x="90" y="200" width="309" height="40" as="geometry" />
        </mxCell>
        <mxCell id="PNV59kuLUWf2rCx9kwnf-4" value="" style="endArrow=none;html=1;rounded=0;entryX=0.8;entryY=0;entryDx=-5;entryDy=0;entryPerimeter=0;exitX=0.79;exitY=1;exitDx=-2;exitDy=0;exitPerimeter=0;" edge="1" parent="1" source="PNV59kuLUWf2rCx9kwnf-1" target="PNV59kuLUWf2rCx9kwnf-1">
          <mxGeometry width="50" height="50" relative="1" as="geometry">
            <mxPoint x="370" y="300" as="sourcePoint" />
            <mxPoint x="420" y="250" as="targetPoint" />
          </mxGeometry>
        </mxCell>
        <mxCell id="PNV59kuLUWf2rCx9kwnf-5" value="" style="endArrow=none;html=1;rounded=0;entryX=0.6;entryY=0;entryDx=-9;entryDy=0;entryPerimeter=0;exitX=0.56;exitY=1;exitDx=4;exitDy=0;exitPerimeter=0;" edge="1" parent="1" source="PNV59kuLUWf2rCx9kwnf-1" target="PNV59kuLUWf2rCx9kwnf-1">
          <mxGeometry width="50" height="50" relative="1" as="geometry">
            <mxPoint x="336" y="250" as="sourcePoint" />
            <mxPoint x="336" y="210" as="targetPoint" />
          </mxGeometry>
        </mxCell>
        <mxCell id="PNV59kuLUWf2rCx9kwnf-7" value="" style="endArrow=none;html=1;rounded=0;entryX=0.4;entryY=0;entryDx=-14;entryDy=0;entryPerimeter=0;exitX=0.36;exitY=1;exitDx=-1;exitDy=0;exitPerimeter=0;" edge="1" parent="1" source="PNV59kuLUWf2rCx9kwnf-1" target="PNV59kuLUWf2rCx9kwnf-1">
          <mxGeometry width="50" height="50" relative="1" as="geometry">
            <mxPoint x="272" y="250" as="sourcePoint" />
            <mxPoint x="273" y="210" as="targetPoint" />
          </mxGeometry>
        </mxCell>
        <mxCell id="PNV59kuLUWf2rCx9kwnf-8" value="" style="endArrow=none;html=1;rounded=0;entryX=0.2;entryY=0;entryDx=-20;entryDy=0;entryPerimeter=0;exitX=0.14;exitY=1;exitDx=-1;exitDy=0;exitPerimeter=0;" edge="1" parent="1" source="PNV59kuLUWf2rCx9kwnf-1" target="PNV59kuLUWf2rCx9kwnf-1">
          <mxGeometry width="50" height="50" relative="1" as="geometry">
            <mxPoint x="282" y="260" as="sourcePoint" />
            <mxPoint x="283" y="220" as="targetPoint" />
          </mxGeometry>
        </mxCell>
        <mxCell id="PNV59kuLUWf2rCx9kwnf-9" value="&lt;font style=&quot;font-size: 7px;&quot;&gt;s_lpf1_coeff[0]&lt;/font&gt;" style="rounded=0;whiteSpace=wrap;html=1;fillColor=#B9E0A5;" vertex="1" parent="1">
          <mxGeometry x="330" y="200" width="69" height="40" as="geometry" />
        </mxCell>
        <mxCell id="PNV59kuLUWf2rCx9kwnf-11" value="&lt;font style=&quot;font-size: 7px;&quot;&gt;s_lpf1_coeff[1]&lt;/font&gt;" style="rounded=0;whiteSpace=wrap;html=1;fillColor=#B9E0A5;" vertex="1" parent="1">
          <mxGeometry x="261" y="200" width="69" height="40" as="geometry" />
        </mxCell>
        <mxCell id="PNV59kuLUWf2rCx9kwnf-12" value="&lt;font style=&quot;font-size: 7px;&quot;&gt;s_lpf1_coeff[2]&lt;/font&gt;" style="rounded=0;whiteSpace=wrap;html=1;fillColor=#B9E0A5;" vertex="1" parent="1">
          <mxGeometry x="192" y="200" width="69" height="40" as="geometry" />
        </mxCell>
        <mxCell id="PNV59kuLUWf2rCx9kwnf-13" value="&lt;font style=&quot;font-size: 7px;&quot;&gt;s_lpf1_coeff[2]&lt;/font&gt;" style="rounded=0;whiteSpace=wrap;html=1;fillColor=#B9E0A5;" vertex="1" parent="1">
          <mxGeometry x="123" y="200" width="69" height="40" as="geometry" />
        </mxCell>
        <mxCell id="PNV59kuLUWf2rCx9kwnf-14" value="" style="rounded=0;whiteSpace=wrap;html=1;fillColor=#dae8fc;strokeColor=#000000;imageHeight=24;imageWidth=27;" vertex="1" parent="1">
          <mxGeometry x="82" y="200" width="41" height="40" as="geometry" />
        </mxCell>
        <mxCell id="PNV59kuLUWf2rCx9kwnf-15" value="&lt;font style=&quot;font-size: 7px;&quot;&gt;0&lt;/font&gt;" style="text;html=1;align=center;verticalAlign=middle;resizable=0;points=[];autosize=1;strokeColor=none;fillColor=none;fontSize=7;" vertex="1" parent="1">
          <mxGeometry x="385" y="183" width="30" height="20" as="geometry" />
        </mxCell>
        <mxCell id="PNV59kuLUWf2rCx9kwnf-17" value="&lt;font style=&quot;font-size: 7px;&quot;&gt;6&lt;/font&gt;" style="text;html=1;align=center;verticalAlign=middle;resizable=0;points=[];autosize=1;strokeColor=none;fillColor=none;fontFamily=Helvetica;fontSize=7;fontColor=default;" vertex="1" parent="1">
          <mxGeometry x="325" y="183" width="30" height="20" as="geometry" />
        </mxCell>
        <mxCell id="PNV59kuLUWf2rCx9kwnf-18" value="7" style="text;html=1;align=center;verticalAlign=middle;resizable=0;points=[];autosize=1;strokeColor=none;fillColor=none;fontFamily=Helvetica;fontSize=7;fontColor=default;" vertex="1" parent="1">
          <mxGeometry x="310" y="178" width="30" height="30" as="geometry" />
        </mxCell>
        <mxCell id="PNV59kuLUWf2rCx9kwnf-19" value="13" style="text;html=1;align=center;verticalAlign=middle;resizable=0;points=[];autosize=1;strokeColor=none;fillColor=none;fontFamily=Helvetica;fontSize=7;fontColor=default;" vertex="1" parent="1">
          <mxGeometry x="248" y="178" width="40" height="30" as="geometry" />
        </mxCell>
        <mxCell id="PNV59kuLUWf2rCx9kwnf-20" value="14" style="text;html=1;align=center;verticalAlign=middle;resizable=0;points=[];autosize=1;strokeColor=none;fillColor=none;fontFamily=Helvetica;fontSize=7;fontColor=default;" vertex="1" parent="1">
          <mxGeometry x="233" y="178" width="40" height="30" as="geometry" />
        </mxCell>
        <mxCell id="PNV59kuLUWf2rCx9kwnf-21" value="20" style="text;html=1;align=center;verticalAlign=middle;resizable=0;points=[];autosize=1;strokeColor=none;fillColor=none;fontFamily=Helvetica;fontSize=7;fontColor=default;" vertex="1" parent="1">
          <mxGeometry x="183" y="178" width="40" height="30" as="geometry" />
        </mxCell>
        <mxCell id="PNV59kuLUWf2rCx9kwnf-22" value="21" style="text;html=1;align=center;verticalAlign=middle;resizable=0;points=[];autosize=1;strokeColor=none;fillColor=none;fontFamily=Helvetica;fontSize=7;fontColor=default;" vertex="1" parent="1">
          <mxGeometry x="163" y="178" width="40" height="30" as="geometry" />
        </mxCell>
        <mxCell id="PNV59kuLUWf2rCx9kwnf-23" value="27" style="text;html=1;align=center;verticalAlign=middle;resizable=0;points=[];autosize=1;strokeColor=none;fillColor=none;fontFamily=Helvetica;fontSize=7;fontColor=default;" vertex="1" parent="1">
          <mxGeometry x="113" y="179" width="40" height="30" as="geometry" />
        </mxCell>
        <mxCell id="PNV59kuLUWf2rCx9kwnf-24" value="28" style="text;html=1;align=center;verticalAlign=middle;resizable=0;points=[];autosize=1;strokeColor=none;fillColor=none;fontFamily=Helvetica;fontSize=7;fontColor=default;" vertex="1" parent="1">
          <mxGeometry x="93" y="179" width="40" height="30" as="geometry" />
        </mxCell>
        <mxCell id="PNV59kuLUWf2rCx9kwnf-25" value="31" style="text;html=1;align=center;verticalAlign=middle;resizable=0;points=[];autosize=1;strokeColor=none;fillColor=none;fontFamily=Helvetica;fontSize=7;fontColor=default;" vertex="1" parent="1">
          <mxGeometry x="65" y="183" width="30" height="20" as="geometry" />
        </mxCell>
        <mxCell id="PNV59kuLUWf2rCx9kwnf-26" value="&lt;font style=&quot;font-size: 7px;&quot;&gt;s_lpf2_coeff[0]&lt;/font&gt;" style="rounded=0;whiteSpace=wrap;html=1;fillColor=#B9E0A5;" vertex="1" parent="1">
          <mxGeometry x="342" y="290" width="59" height="40" as="geometry" />
        </mxCell>
        <mxCell id="PNV59kuLUWf2rCx9kwnf-27" value="&lt;font style=&quot;font-size: 7px;&quot;&gt;s_lpf2_coeff[1]&lt;/font&gt;" style="rounded=0;whiteSpace=wrap;html=1;fillColor=#B9E0A5;" vertex="1" parent="1">
          <mxGeometry x="283" y="290" width="59" height="40" as="geometry" />
        </mxCell>
        <mxCell id="PNV59kuLUWf2rCx9kwnf-28" value="&lt;font style=&quot;font-size: 7px;&quot;&gt;s_lpf2_coeff[2]&lt;/font&gt;" style="rounded=0;whiteSpace=wrap;html=1;fillColor=#B9E0A5;" vertex="1" parent="1">
          <mxGeometry x="224" y="290" width="59" height="40" as="geometry" />
        </mxCell>
        <mxCell id="PNV59kuLUWf2rCx9kwnf-29" value="&lt;font style=&quot;font-size: 7px;&quot;&gt;s_lpf2_coeff[3]&lt;/font&gt;" style="rounded=0;whiteSpace=wrap;html=1;fillColor=#B9E0A5;" vertex="1" parent="1">
          <mxGeometry x="165" y="290" width="59" height="40" as="geometry" />
        </mxCell>
        <mxCell id="PNV59kuLUWf2rCx9kwnf-30" value="&lt;font style=&quot;font-size: 7px;&quot;&gt;s_lpf2_coeff[4]&lt;/font&gt;" style="rounded=0;whiteSpace=wrap;html=1;fillColor=#B9E0A5;" vertex="1" parent="1">
          <mxGeometry x="106" y="290" width="59" height="40" as="geometry" />
        </mxCell>
        <mxCell id="PNV59kuLUWf2rCx9kwnf-31" value="" style="rounded=0;whiteSpace=wrap;html=1;fillColor=#dae8fc;strokeColor=#000000;imageHeight=24;imageWidth=27;" vertex="1" parent="1">
          <mxGeometry x="82" y="290" width="24" height="40" as="geometry" />
        </mxCell>
        <mxCell id="PNV59kuLUWf2rCx9kwnf-32" value="0" style="text;html=1;align=center;verticalAlign=middle;resizable=0;points=[];autosize=1;strokeColor=none;fillColor=none;fontFamily=Helvetica;fontSize=8;fontColor=default;" vertex="1" parent="1">
          <mxGeometry x="385" y="274" width="30" height="20" as="geometry" />
        </mxCell>
        <mxCell id="PNV59kuLUWf2rCx9kwnf-33" value="5" style="text;html=1;align=center;verticalAlign=middle;resizable=0;points=[];autosize=1;strokeColor=none;fillColor=none;fontFamily=Helvetica;fontSize=8;fontColor=default;" vertex="1" parent="1">
          <mxGeometry x="333" y="275" width="30" height="20" as="geometry" />
        </mxCell>
        <mxCell id="PNV59kuLUWf2rCx9kwnf-34" value="6" style="text;html=1;align=center;verticalAlign=middle;resizable=0;points=[];autosize=1;strokeColor=none;fillColor=none;fontFamily=Helvetica;fontSize=8;fontColor=default;" vertex="1" parent="1">
          <mxGeometry x="322" y="275" width="30" height="20" as="geometry" />
        </mxCell>
        <mxCell id="PNV59kuLUWf2rCx9kwnf-35" value="11" style="text;html=1;align=center;verticalAlign=middle;resizable=0;points=[];autosize=1;strokeColor=none;fillColor=none;fontFamily=Helvetica;fontSize=8;fontColor=default;" vertex="1" parent="1">
          <mxGeometry x="273" y="274" width="30" height="20" as="geometry" />
        </mxCell>
        <mxCell id="PNV59kuLUWf2rCx9kwnf-37" value="12" style="text;html=1;align=center;verticalAlign=middle;resizable=0;points=[];autosize=1;strokeColor=none;fillColor=none;fontFamily=Helvetica;fontSize=8;fontColor=default;" vertex="1" parent="1">
          <mxGeometry x="261" y="274" width="30" height="20" as="geometry" />
        </mxCell>
        <mxCell id="PNV59kuLUWf2rCx9kwnf-38" value="17" style="text;html=1;align=center;verticalAlign=middle;resizable=0;points=[];autosize=1;strokeColor=none;fillColor=none;fontFamily=Helvetica;fontSize=8;fontColor=default;" vertex="1" parent="1">
          <mxGeometry x="215" y="275" width="30" height="20" as="geometry" />
        </mxCell>
        <mxCell id="PNV59kuLUWf2rCx9kwnf-39" value="18" style="text;html=1;align=center;verticalAlign=middle;resizable=0;points=[];autosize=1;strokeColor=none;fillColor=none;fontFamily=Helvetica;fontSize=8;fontColor=default;" vertex="1" parent="1">
          <mxGeometry x="203" y="275" width="30" height="20" as="geometry" />
        </mxCell>
        <mxCell id="PNV59kuLUWf2rCx9kwnf-40" value="23" style="text;html=1;align=center;verticalAlign=middle;resizable=0;points=[];autosize=1;strokeColor=none;fillColor=none;fontFamily=Helvetica;fontSize=8;fontColor=default;" vertex="1" parent="1">
          <mxGeometry x="158" y="275" width="30" height="20" as="geometry" />
        </mxCell>
        <mxCell id="PNV59kuLUWf2rCx9kwnf-41" value="24" style="text;html=1;align=center;verticalAlign=middle;resizable=0;points=[];autosize=1;strokeColor=none;fillColor=none;fontFamily=Helvetica;fontSize=8;fontColor=default;" vertex="1" parent="1">
          <mxGeometry x="143" y="275" width="30" height="20" as="geometry" />
        </mxCell>
        <mxCell id="PNV59kuLUWf2rCx9kwnf-42" value="29" style="text;html=1;align=center;verticalAlign=middle;resizable=0;points=[];autosize=1;strokeColor=none;fillColor=none;fontFamily=Helvetica;fontSize=8;fontColor=default;" vertex="1" parent="1">
          <mxGeometry x="98" y="275" width="30" height="20" as="geometry" />
        </mxCell>
        <mxCell id="PNV59kuLUWf2rCx9kwnf-43" value="30" style="text;html=1;align=center;verticalAlign=middle;resizable=0;points=[];autosize=1;strokeColor=none;fillColor=none;fontFamily=Helvetica;fontSize=8;fontColor=default;" vertex="1" parent="1">
          <mxGeometry x="84.5" y="275" width="30" height="20" as="geometry" />
        </mxCell>
        <mxCell id="PNV59kuLUWf2rCx9kwnf-44" value="31" style="text;html=1;align=center;verticalAlign=middle;resizable=0;points=[];autosize=1;strokeColor=none;fillColor=none;fontFamily=Helvetica;fontSize=8;fontColor=default;" vertex="1" parent="1">
          <mxGeometry x="67" y="275" width="30" height="20" as="geometry" />
        </mxCell>
        <mxCell id="PNV59kuLUWf2rCx9kwnf-45" value="&lt;font style=&quot;font-size: 7px;&quot;&gt;s_lpf8_coeff[0]&lt;/font&gt;" style="rounded=0;whiteSpace=wrap;html=1;fillColor=#B9E0A5;" vertex="1" parent="1">
          <mxGeometry x="309.75" y="387" width="91" height="40" as="geometry" />
        </mxCell>
        <mxCell id="PNV59kuLUWf2rCx9kwnf-46" value="&lt;font style=&quot;font-size: 7px;&quot;&gt;s_lpf8_coeff[0]&lt;/font&gt;" style="rounded=0;whiteSpace=wrap;html=1;fillColor=#B9E0A5;" vertex="1" parent="1">
          <mxGeometry x="218.75" y="387" width="91" height="40" as="geometry" />
        </mxCell>
        <mxCell id="PNV59kuLUWf2rCx9kwnf-47" value="&lt;font style=&quot;font-size: 7px;&quot;&gt;s_lpf8_coeff[0]&lt;/font&gt;" style="rounded=0;whiteSpace=wrap;html=1;fillColor=#B9E0A5;" vertex="1" parent="1">
          <mxGeometry x="128" y="387" width="91" height="40" as="geometry" />
        </mxCell>
        <mxCell id="PNV59kuLUWf2rCx9kwnf-48" value="0" style="text;html=1;align=center;verticalAlign=middle;resizable=0;points=[];autosize=1;strokeColor=none;fillColor=none;fontFamily=Helvetica;fontSize=8;fontColor=default;" vertex="1" parent="1">
          <mxGeometry x="385" y="370" width="30" height="20" as="geometry" />
        </mxCell>
        <mxCell id="PNV59kuLUWf2rCx9kwnf-49" value="8" style="text;html=1;align=center;verticalAlign=middle;resizable=0;points=[];autosize=1;strokeColor=none;fillColor=none;fontFamily=Helvetica;fontSize=8;fontColor=default;" vertex="1" parent="1">
          <mxGeometry x="300" y="371" width="30" height="20" as="geometry" />
        </mxCell>
        <mxCell id="PNV59kuLUWf2rCx9kwnf-50" value="9" style="text;html=1;align=center;verticalAlign=middle;resizable=0;points=[];autosize=1;strokeColor=none;fillColor=none;fontFamily=Helvetica;fontSize=8;fontColor=default;" vertex="1" parent="1">
          <mxGeometry x="290" y="371" width="30" height="20" as="geometry" />
        </mxCell>
        <mxCell id="PNV59kuLUWf2rCx9kwnf-51" value="17" style="text;html=1;align=center;verticalAlign=middle;resizable=0;points=[];autosize=1;strokeColor=none;fillColor=none;fontFamily=Helvetica;fontSize=8;fontColor=default;" vertex="1" parent="1">
          <mxGeometry x="209.5" y="371" width="30" height="20" as="geometry" />
        </mxCell>
        <mxCell id="PNV59kuLUWf2rCx9kwnf-52" value="18" style="text;html=1;align=center;verticalAlign=middle;resizable=0;points=[];autosize=1;strokeColor=none;fillColor=none;fontFamily=Helvetica;fontSize=8;fontColor=default;" vertex="1" parent="1">
          <mxGeometry x="198" y="371" width="30" height="20" as="geometry" />
        </mxCell>
        <mxCell id="PNV59kuLUWf2rCx9kwnf-53" value="26" style="text;html=1;align=center;verticalAlign=middle;resizable=0;points=[];autosize=1;strokeColor=none;fillColor=none;fontFamily=Helvetica;fontSize=8;fontColor=default;" vertex="1" parent="1">
          <mxGeometry x="120.5" y="371" width="30" height="20" as="geometry" />
        </mxCell>
        <mxCell id="PNV59kuLUWf2rCx9kwnf-54" value="" style="rounded=0;whiteSpace=wrap;html=1;fillColor=#dae8fc;strokeColor=#000000;imageHeight=24;imageWidth=27;" vertex="1" parent="1">
          <mxGeometry x="80" y="387" width="48" height="40" as="geometry" />
        </mxCell>
        <mxCell id="PNV59kuLUWf2rCx9kwnf-55" value="27" style="text;html=1;align=center;verticalAlign=middle;resizable=0;points=[];autosize=1;strokeColor=none;fillColor=none;fontFamily=Helvetica;fontSize=8;fontColor=default;" vertex="1" parent="1">
          <mxGeometry x="106" y="371" width="30" height="20" as="geometry" />
        </mxCell>
        <mxCell id="PNV59kuLUWf2rCx9kwnf-56" value="31" style="text;html=1;align=center;verticalAlign=middle;resizable=0;points=[];autosize=1;strokeColor=none;fillColor=none;fontFamily=Helvetica;fontSize=8;fontColor=default;" vertex="1" parent="1">
          <mxGeometry x="65" y="370" width="30" height="20" as="geometry" />
        </mxCell>
      </root>
    </mxGraphModel>
  </diagram>
</mxfile>
